<mxfile host="app.diagrams.net" modified="2023-06-23T09:43:54.840Z" agent="Mozilla/5.0 (Windows NT 10.0; Win64; x64) AppleWebKit/537.36 (KHTML, like Gecko) Chrome/114.0.0.0 Safari/537.36" etag="G5JlSD7Sx5jg7zWRG3J0" version="21.5.0" type="github">
  <diagram name="Page-1" id="tMCMHhbmJrTcd6gPD3CS">
    <mxGraphModel dx="1050" dy="485" grid="1" gridSize="10" guides="1" tooltips="1" connect="1" arrows="1" fold="1" page="1" pageScale="1" pageWidth="1100" pageHeight="850" math="0" shadow="0">
      <root>
        <mxCell id="0" />
        <mxCell id="1" parent="0" />
        <mxCell id="FzMrSRu2-M5TTz-W8zS9-7" value="Private Capital (rental rate)" style="edgeStyle=orthogonalEdgeStyle;rounded=0;orthogonalLoop=1;jettySize=auto;html=1;entryX=0.5;entryY=0;entryDx=0;entryDy=0;endArrow=classic;endFill=1;" edge="1" parent="1" source="FzMrSRu2-M5TTz-W8zS9-1" target="FzMrSRu2-M5TTz-W8zS9-2">
          <mxGeometry x="0.1628" y="-22" relative="1" as="geometry">
            <Array as="points">
              <mxPoint x="632" y="170" />
              <mxPoint x="632" y="170" />
            </Array>
            <mxPoint as="offset" />
          </mxGeometry>
        </mxCell>
        <mxCell id="FzMrSRu2-M5TTz-W8zS9-1" value="Private Capital Producers" style="rounded=1;whiteSpace=wrap;html=1;" vertex="1" parent="1">
          <mxGeometry x="572" y="85" width="120" height="60" as="geometry" />
        </mxCell>
        <mxCell id="FzMrSRu2-M5TTz-W8zS9-9" value="Domestic Intermediate Goods" style="edgeStyle=orthogonalEdgeStyle;rounded=0;orthogonalLoop=1;jettySize=auto;html=1;entryX=0.5;entryY=0;entryDx=0;entryDy=0;" edge="1" parent="1" source="FzMrSRu2-M5TTz-W8zS9-2" target="FzMrSRu2-M5TTz-W8zS9-4">
          <mxGeometry relative="1" as="geometry">
            <Array as="points" />
          </mxGeometry>
        </mxCell>
        <mxCell id="FzMrSRu2-M5TTz-W8zS9-2" value="Domestic Producers" style="rounded=1;whiteSpace=wrap;html=1;" vertex="1" parent="1">
          <mxGeometry x="572" y="188" width="120" height="60" as="geometry" />
        </mxCell>
        <mxCell id="FzMrSRu2-M5TTz-W8zS9-12" value="Imported Intermediate Goods&lt;br&gt;(Import Price)" style="edgeStyle=orthogonalEdgeStyle;rounded=0;orthogonalLoop=1;jettySize=auto;html=1;entryX=0.5;entryY=1;entryDx=0;entryDy=0;endArrow=none;endFill=0;" edge="1" parent="1" source="FzMrSRu2-M5TTz-W8zS9-3" target="FzMrSRu2-M5TTz-W8zS9-4">
          <mxGeometry x="0.0769" y="-80" relative="1" as="geometry">
            <Array as="points">
              <mxPoint x="632" y="390" />
              <mxPoint x="632" y="390" />
            </Array>
            <mxPoint as="offset" />
          </mxGeometry>
        </mxCell>
        <mxCell id="FzMrSRu2-M5TTz-W8zS9-22" value="" style="edgeStyle=orthogonalEdgeStyle;rounded=0;orthogonalLoop=1;jettySize=auto;html=1;" edge="1" parent="1" source="FzMrSRu2-M5TTz-W8zS9-3" target="FzMrSRu2-M5TTz-W8zS9-4">
          <mxGeometry relative="1" as="geometry" />
        </mxCell>
        <mxCell id="FzMrSRu2-M5TTz-W8zS9-3" value="Importers" style="rounded=1;whiteSpace=wrap;html=1;" vertex="1" parent="1">
          <mxGeometry x="572" y="425" width="120" height="60" as="geometry" />
        </mxCell>
        <mxCell id="FzMrSRu2-M5TTz-W8zS9-5" style="edgeStyle=orthogonalEdgeStyle;rounded=0;orthogonalLoop=1;jettySize=auto;html=1;entryX=1;entryY=0.5;entryDx=0;entryDy=0;exitX=1;exitY=0.5;exitDx=0;exitDy=0;" edge="1" parent="1" source="FzMrSRu2-M5TTz-W8zS9-4" target="FzMrSRu2-M5TTz-W8zS9-1">
          <mxGeometry relative="1" as="geometry">
            <Array as="points">
              <mxPoint x="742" y="330" />
              <mxPoint x="742" y="115" />
            </Array>
          </mxGeometry>
        </mxCell>
        <mxCell id="FzMrSRu2-M5TTz-W8zS9-6" value="Private Investment" style="edgeLabel;html=1;align=center;verticalAlign=middle;resizable=0;points=[];" vertex="1" connectable="0" parent="FzMrSRu2-M5TTz-W8zS9-5">
          <mxGeometry x="0.4406" relative="1" as="geometry">
            <mxPoint x="28" y="7" as="offset" />
          </mxGeometry>
        </mxCell>
        <mxCell id="FzMrSRu2-M5TTz-W8zS9-17" style="edgeStyle=orthogonalEdgeStyle;rounded=0;orthogonalLoop=1;jettySize=auto;html=1;" edge="1" parent="1" source="FzMrSRu2-M5TTz-W8zS9-4" target="FzMrSRu2-M5TTz-W8zS9-14">
          <mxGeometry relative="1" as="geometry">
            <Array as="points">
              <mxPoint x="442" y="340" />
            </Array>
          </mxGeometry>
        </mxCell>
        <mxCell id="FzMrSRu2-M5TTz-W8zS9-19" value="Exported intermedia goods&lt;br&gt;(Export Marginal costs)" style="edgeLabel;html=1;align=center;verticalAlign=middle;resizable=0;points=[];" vertex="1" connectable="0" parent="FzMrSRu2-M5TTz-W8zS9-17">
          <mxGeometry x="0.8129" y="2" relative="1" as="geometry">
            <mxPoint as="offset" />
          </mxGeometry>
        </mxCell>
        <mxCell id="FzMrSRu2-M5TTz-W8zS9-4" value="Retailers" style="rounded=1;whiteSpace=wrap;html=1;" vertex="1" parent="1">
          <mxGeometry x="572" y="300" width="120" height="60" as="geometry" />
        </mxCell>
        <mxCell id="FzMrSRu2-M5TTz-W8zS9-21" value="Exports&lt;br&gt;(Export Price)" style="edgeStyle=orthogonalEdgeStyle;rounded=0;orthogonalLoop=1;jettySize=auto;html=1;endArrow=classic;endFill=1;" edge="1" parent="1" source="FzMrSRu2-M5TTz-W8zS9-14" target="FzMrSRu2-M5TTz-W8zS9-15">
          <mxGeometry x="0.0127" y="-30" relative="1" as="geometry">
            <mxPoint as="offset" />
          </mxGeometry>
        </mxCell>
        <mxCell id="FzMrSRu2-M5TTz-W8zS9-14" value="Exporters" style="rounded=1;whiteSpace=wrap;html=1;" vertex="1" parent="1">
          <mxGeometry x="382" y="540" width="120" height="60" as="geometry" />
        </mxCell>
        <mxCell id="FzMrSRu2-M5TTz-W8zS9-18" value="Foreign Imports&lt;br&gt;(RER)" style="edgeStyle=orthogonalEdgeStyle;rounded=0;orthogonalLoop=1;jettySize=auto;html=1;entryX=0.573;entryY=0.967;entryDx=0;entryDy=0;entryPerimeter=0;endArrow=classic;endFill=1;" edge="1" parent="1" source="FzMrSRu2-M5TTz-W8zS9-15" target="FzMrSRu2-M5TTz-W8zS9-3">
          <mxGeometry x="-0.3005" y="-29" relative="1" as="geometry">
            <mxPoint x="-1" y="1" as="offset" />
          </mxGeometry>
        </mxCell>
        <mxCell id="FzMrSRu2-M5TTz-W8zS9-15" value="Foreign Economy" style="rounded=1;whiteSpace=wrap;html=1;" vertex="1" parent="1">
          <mxGeometry x="581" y="540" width="120" height="60" as="geometry" />
        </mxCell>
        <mxCell id="FzMrSRu2-M5TTz-W8zS9-46" style="edgeStyle=orthogonalEdgeStyle;rounded=0;orthogonalLoop=1;jettySize=auto;html=1;entryX=0;entryY=0.5;entryDx=0;entryDy=0;endArrow=none;endFill=0;startArrow=classic;startFill=1;" edge="1" parent="1" source="FzMrSRu2-M5TTz-W8zS9-40" target="FzMrSRu2-M5TTz-W8zS9-4">
          <mxGeometry relative="1" as="geometry">
            <Array as="points">
              <mxPoint x="330" y="130" />
              <mxPoint x="150" y="130" />
              <mxPoint x="150" y="330" />
            </Array>
          </mxGeometry>
        </mxCell>
        <mxCell id="FzMrSRu2-M5TTz-W8zS9-47" value="Private Consumption&lt;br&gt;(Consumption Price)" style="edgeLabel;html=1;align=center;verticalAlign=middle;resizable=0;points=[];" vertex="1" connectable="0" parent="FzMrSRu2-M5TTz-W8zS9-46">
          <mxGeometry x="0.1788" y="1" relative="1" as="geometry">
            <mxPoint as="offset" />
          </mxGeometry>
        </mxCell>
        <mxCell id="FzMrSRu2-M5TTz-W8zS9-40" value="Households" style="swimlane;childLayout=stackLayout;resizeParent=1;resizeParentMax=0;startSize=20;html=1;rounded=1;" vertex="1" parent="1">
          <mxGeometry x="210" y="178" width="240" height="60" as="geometry" />
        </mxCell>
        <mxCell id="FzMrSRu2-M5TTz-W8zS9-41" value="Old Households" style="swimlane;startSize=20;html=1;swimlaneLine=0;rounded=1;" vertex="1" parent="FzMrSRu2-M5TTz-W8zS9-40">
          <mxGeometry y="20" width="120" height="40" as="geometry" />
        </mxCell>
        <mxCell id="FzMrSRu2-M5TTz-W8zS9-42" value="Young Households" style="swimlane;startSize=20;html=1;swimlaneLine=0;rounded=1;" vertex="1" parent="FzMrSRu2-M5TTz-W8zS9-40">
          <mxGeometry x="120" y="20" width="120" height="40" as="geometry" />
        </mxCell>
        <mxCell id="FzMrSRu2-M5TTz-W8zS9-45" value="Labor, Net Wage" style="edgeStyle=orthogonalEdgeStyle;rounded=0;orthogonalLoop=1;jettySize=auto;html=1;" edge="1" parent="1" source="FzMrSRu2-M5TTz-W8zS9-42" target="FzMrSRu2-M5TTz-W8zS9-2">
          <mxGeometry relative="1" as="geometry" />
        </mxCell>
      </root>
    </mxGraphModel>
  </diagram>
</mxfile>
